<?xml version="1.0" encoding="iso-8859-1"?>
<!-- Generator: Adobe Illustrator 19.0.0, SVG Export Plug-In . SVG Version: 6.00 Build 0)  -->
<svg version="1.1" id="Layer_1" xmlns="http://www.w3.org/2000/svg" xmlns:xlink="http://www.w3.org/1999/xlink" x="0px" y="0px"
	 viewBox="0 0 512 512" style="enable-background:new 0 0 512 512;" xml:space="preserve">
    <path style="fill:#eee;" d="M489.107,94.226H256H22.893C10.256,94.226,0,104.482,0,117.118v117.515c7.321,0,504.679,0,512,0
    	V117.118C512,104.482,501.744,94.226,489.107,94.226z"/>
    <path style="fill:#f8f8f8;" d="M489.107,94.226H256v125.146h256V117.118C512,104.482,501.744,94.226,489.107,94.226z"/>
    <path style="fill:#D1D3D4;" d="M0,219.372v248.766c0,12.637,10.256,22.893,22.893,22.893H256h233.107
    	c12.637,0,22.893-10.256,22.893-22.893V219.372C504.679,219.372,7.321,219.372,0,219.372z"/>
    <path style="fill:#BFC1C2;" d="M512,219.372v248.766c0,12.637-10.256,22.893-22.893,22.893H256V219.372L512,219.372L512,219.372z"/>
    <path style="fill:#ccc;" d="M172.819,161.377c-12.643,0-22.893-10.25-22.893-22.893V43.862c0-12.643,10.25-22.893,22.893-22.893
    	c12.643,0,22.893,10.25,22.893,22.893v94.623C195.712,151.128,185.462,161.377,172.819,161.377z"/>
    <path style="fill:#bbb;" d="M339.172,161.377c-12.643,0-22.893-10.25-22.893-22.893V43.862c0-12.643,10.25-22.893,22.893-22.893
    	c12.643,0,22.893,10.25,22.893,22.893v94.623C362.064,151.128,351.815,161.377,339.172,161.377z"/>
    <g>
    	<path style="fill:#A7A9AC;" d="M93.269,314.84c15.263-23.26,42.922-23.038,58.042,0c14.085,20.965,13.914,54.071,0,74.781
    		c-15.42,23.132-42.602,23.164-58.042,0C79.282,369.279,78.993,335.602,93.269,314.84z M136.916,324.383
    		c-9.123-13.212-20.57-12.379-29.411,0c-10.1,15.512-9.897,40.694,0,55.539c8.963,12.849,20.641,13.005,29.411,0
    		C146.775,365.137,147.056,339.955,136.916,324.383z"/>
    	<path style="fill:#A7A9AC;" d="M349.267,314.84c15.263-23.26,42.922-23.038,58.042,0c14.085,20.965,13.914,54.071,0,74.781
    		c-15.42,23.132-42.602,23.164-58.042,0C335.28,369.279,334.992,335.602,349.267,314.84z M392.914,324.383
    		c-9.123-13.212-20.568-12.379-29.411,0c-10.1,15.512-9.897,40.694,0,55.539c8.963,12.849,20.641,13.005,29.411,0
    		C402.775,365.137,403.056,339.955,392.914,324.383z"/>
    </g>
</svg>
