<?xml version="1.0" encoding="UTF-8" standalone="no"?>
<!-- Generator: Adobe Illustrator 19.0.0, SVG Export Plug-In . SVG Version: 6.00 Build 0)  -->

<svg
   xmlns:dc="http://purl.org/dc/elements/1.1/"
   xmlns:cc="http://creativecommons.org/ns#"
   xmlns:rdf="http://www.w3.org/1999/02/22-rdf-syntax-ns#"
   xmlns:svg="http://www.w3.org/2000/svg"
   xmlns="http://www.w3.org/2000/svg"
   xmlns:sodipodi="http://sodipodi.sourceforge.net/DTD/sodipodi-0.dtd"
   xmlns:inkscape="http://www.inkscape.org/namespaces/inkscape"
   version="1.1"
   id="Capa_1"
   x="0px"
   y="0px"
   viewBox="0 0 497.842 497.842"
   style="enable-background:new 0 0 497.842 497.842;"
   xml:space="preserve"
   sodipodi:docname="icon_ping-pong.svg"
   inkscape:version="0.92.2 5c3e80d, 2017-08-06"><metadata
     id="metadata45"><rdf:RDF><cc:Work
         rdf:about=""><dc:format>image/svg+xml</dc:format><dc:type
           rdf:resource="http://purl.org/dc/dcmitype/StillImage" /></cc:Work></rdf:RDF></metadata><defs
     id="defs43" /><sodipodi:namedview
     pagecolor="#ffffff"
     bordercolor="#666666"
     borderopacity="1"
     objecttolerance="10"
     gridtolerance="10"
     guidetolerance="10"
     inkscape:pageopacity="0"
     inkscape:pageshadow="2"
     inkscape:window-width="1440"
     inkscape:window-height="856"
     id="namedview41"
     showgrid="false"
     inkscape:zoom="0.47404597"
     inkscape:cx="12.657"
     inkscape:cy="248.92101"
     inkscape:window-x="0"
     inkscape:window-y="0"
     inkscape:window-maximized="1"
     inkscape:current-layer="Capa_1" /><path
     style="fill:#00a5db;fill-opacity:1"
     d="M489.542,431.25c-10.1-10.1-70.4-50.3-90.5-70.4s-48.4-44.2-43-70.5c2.8-13.7,6.3-25.8,9.3-35.3  c28.1-60,21.8-127.3-36.7-185.9c-78.1-78.1-209.4-92.3-281.6-20.1s-58,203.5,20.1,281.6c50.5,50.5,110.7,61.5,166.5,43.5l-0.2,0.2  c0,0,0.8-0.3,1.8-0.7c3.7-1.3,7.5-2.5,11.2-4c9.9-3.4,24.7-7.9,41.8-11.5c26.3-5.4,50.4,22.8,70.5,43c20.1,20.1,60.3,80.5,70.4,90.5  s20.1,0,30.2-10.1l10.1-10.1l10.1-10.1C489.542,451.35,499.642,441.25,489.542,431.25z"
     id="path2" /><path
     style="fill:#e9c6af"
     d="M489.542,431.25c-10.1-10.1-70.4-50.3-90.5-70.4s-48.4-44.2-43-70.5c2.8-13.7,6.3-25.8,9.3-35.3  c5.1-10.9,9-21.9,11.7-33.2l-155.6,155.7c4.1-1,8.2-2.1,12.3-3.4l-0.2,0.2c0,0,0.8-0.3,1.8-0.7c3.8-1.3,7.5-2.5,11.2-4  c9.9-3.4,24.7-7.9,41.8-11.5c26.3-5.4,50.4,22.8,70.5,43s60.3,80.5,70.4,90.5c10.1,10.1,20.1,0,30.2-10.1l10.1-10.1l10.1-10.1  C489.542,451.35,499.642,441.25,489.542,431.25z"
     id="path4" /><polygon
     style="fill:#deaa87"
     points="308.542,290.45 288.442,310.55 459.442,481.45 479.542,461.35 "
     id="polygon6" /><path
     style="fill:#ff6600"
     d="M497.842,76.65c0,27.5-22.3,49.8-49.8,49.8s-49.8-22.3-49.8-49.8s22.3-49.8,49.8-49.8  C475.542,26.95,497.842,49.25,497.842,76.65"
     id="path8" /><g
     id="g10" /><g
     id="g12" /><g
     id="g14" /><g
     id="g16" /><g
     id="g18" /><g
     id="g20" /><g
     id="g22" /><g
     id="g24" /><g
     id="g26" /><g
     id="g28" /><g
     id="g30" /><g
     id="g32" /><g
     id="g34" /><g
     id="g36" /><g
     id="g38" /></svg>